<svg xmlns="http://www.w3.org/2000/svg" width="4000" height="1200" preserveAspectRatio="none" style="display: block;" version="1.1" viewBox="0 0 4000 1200"><path fill="rgb(172,186,176)" d="M899.372 316.375c4.358-1.589 28.901-.449 35.693-.871 21.587-1.342 28.492 13.497 22.5 32.663-3.605 11.532-3.004 24.355-4.252 36.663-1.13 11.14-9.931 16.784-20.614 16.585-18.219-1.523-32.269.682-49.97 4.439-90.414 19.192-112.142 114.384-135.614 190.292a14955 14955 0 0 0-54.768 183.711c-16.201 53.818-25.958 129.791-100.33 121.923-68.38-7.235-73.286-74.189-91.231-126.763-19.375-56.763-35.441-115.822-54.535-172.756-4.68-13.987-8.031-33.607-16.305-45.861-17.746-19.839-29.281 42.91-32.187 52.082l-54.585 176.794c-7.715 24.212-14.406 50.832-24.802 73.587-12.905 28.248-45.746 46.184-76.455 42.526-22.93-2.732-39.999-11.297-54.431-29.636-7.234-9.193-10.6-21.467-14.89-32.269-10.959-33.971-21.429-68.251-31.96-102.364-1.2-3.137-1.122-7.415-2.25-10.43-9.018-24.096-15.118-49.497-22.97-73.988-6.959-21.703-12.849-43.492-19.957-65.117-2.2056-6.711-2.916-14.479-4.903-21.302-3.1045-10.753-11.8376-32.429-12.8703-42.845-2.6309-4.71-4.5332-12.095-6.1304-17.334-11.6253-38.135-23.5367-76.193-35.1735-114.319-.6898-2.259-.4949-8.779-.4371-11.328l8.5989-8.552c24.3452.221 51.3223-1.726 75.1274 1.562 8.995 1.243 16.065 29.85 18.389 37.665a3949 3949 0 0 0 15.432 51.311c11.875 38.234 21.4 75.332 32.474 113.474a4649 4649 0 0 0 42.596 139.554c6.494 20.8 13.435 52.613 21.326 71.47 5.061-1.649 57.996-184.305 66.284-207.097 6.622-21.031 12.93-42.143 20.486-62.857 12.653-34.683 40.003-53.97 76.438-58.609 35.215-4.483 78.888 14.486 92.042 49.545 22.696 60.494 41.447 123.469 59.87 185.395 3.352 11.225 28.544 94.769 31.795 97.316 9.078-20.571 11.973-40.078 18.584-61.136 8.133-25.907 14.277-53.056 22.531-79.134 37.391-118.149 54.37-264.353 185.864-316.325 26.203-10.381 47.858-14.2 75.59-17.664"/><path fill="rgb(37,74,55)" d="M905.745 319.468c13.442-.277 27.86-1.555 41.066.474 6.308.669 9.887 9.909 8.753 15.622-3.141 15.828-2.876 41.242-7.159 55.989-5.599 7.218-37.058 6.332-47.837 7.852-101.896 14.371-125.401 93.407-153.68 186.597-7.552 24.71-14.97 49.46-22.255 74.249a8127 8127 0 0 1-38.216 128.92c-11.867 39.288-21.799 101.872-71.032 108.419-81.265 10.808-90.667-56.527-109.019-114.089l-47.795-153.548c-7.3-23.194-14.295-46.583-22.384-69.493-3.179-9.007-10.239-11.9-19.166-9.751-9.496 7.695-26.78 71.495-31.444 86.507a14959 14959 0 0 1-46.756 151.031c-6.524 21.097-12.253 41.796-20.028 62.652-16.178 43.396-66.261 59.524-106.358 38.675-29.409-15.291-35.833-46.402-44.65-75.53l-15.935-51.824-46.497-152.16c-9.9368-33.476-18.8827-66.98-29.446-100.3-4.7989-15.739-37.9004-117.412-37.1849-124.737.2321-2.377 2.7666-6.142 4.7087-7.522 5.5195-3.922 65.5082-3.056 75.4702-1.613 10.58 9.825 15.293 33.42 19.476 47.756 4.724 16.081 9.577 32.125 14.557 48.129 12.601 40.785 23.823 82.017 35.776 123.024a9007 9007 0 0 0 38.648 128.791c3.325 11.121 16.85 62.931 22.131 69.519l2.168-.336c3.925-3.698 27.723-82.949 31.639-95.871 18.226-60.994 36.472-122.291 57.962-182.205 23.68-69.325 135.558-72.648 161.816-3.705 25.169 66.086 44.13 135.846 65.201 203.412 3.686 11.82 21.667 74.861 28.026 79.628 2.771-.273 3.409-1.39 4.594-4.661 7.281-20.108 12.163-41.993 18.11-62.51l36.574-125.451c22.62-78.22 39.231-160.12 99.555-219.14 43.643-42.701 91.502-57.565 150.611-62.8"/><path fill="rgb(172,186,176)" d="M2012.33 354.021c14.72-.139 55.59-2.857 65.02 4.825 8.75 7.131 5.76 66.671 5.75 80.595l-.02 124.133.01 204.329c0 35.241.1 70.658-.14 105.899-.36 4.217-.41 16.314-3.47 19.014-10.76 9.492-31.74 5.748-44.81 6.46-8.86.484-27.08-.575-32.74-6.529-6.34-6.676-5.05-28.782-5-38.106-22.04 22.35-44.86 39.452-75.74 46.763-52.14 12.347-97.72 5.801-143.63-20.653-107.17-63.402-121.31-230.786-34.19-316.401 36.72-36.086 79.41-54.056 130.91-53.94 51.87.116 85.64 16.553 121.54 52.863.79-13.309.14-34.457.14-48.248l-.07-96.265c-.03-15.978-.41-32.303.19-48.241.31-8.334 8.53-14.913 16.25-16.498m-115.08 476.439c31.55-4.573 57.61-17.349 77-43.272 21.99-29.386 28.54-65.764 23.18-101.622-4.58-30.673-20.74-59.415-45.83-77.938-22.63-16.705-52.96-24.295-80.86-20.377-31.45 4.222-55.14 16.212-74.71 41.871-21.39 28.045-29 64.582-24.15 99.175 4.49 32.101 20.24 62.085 46.44 81.681 21.6 16.155 51.07 24.604 77.95 20.631z"/><path fill="rgb(37,74,55)" d="M2025.74 356.493c12.35-.15 25.66-.605 37.92.158 4.58.286 11.32 2.453 13.79 6.305 1.56 2.422 1.95 13.595 1.97 16.816.22 42.089-.06 84.224.09 126.308.54 80.306.58 160.614.13 240.921-.23 28.383-.17 56.769.17 85.151.08 18.382.8 38.419-1.55 56.456-7.1 12.703-41.17 5.973-54.17 7.283-10.73 1.081-17.13-.707-23.02-10.187-1.01-12.949-.64-25.912-.55-38.915-5.82 5.073-12.03 12.035-17.7 17.512-47.82 46.229-128.29 49.926-186.55 23.028-8.19-3.78-15.95-8.433-23.85-13.235-28.8-20.218-48.74-43.326-63.45-75.513-23.75-51.413-26.24-110.127-6.92-163.366 40.27-107.629 165.76-159.917 267.06-92.314 7.05 4.704 24.98 24.086 28.44 25.396 2.25-3.459 1.33-28.122 1.32-33.847l-.01-111.034c.06-15.054-.61-42.351.95-56.556 8.99-12.49 10.97-10.34 25.93-10.367m-128.49 473.967c31.55-4.573 57.61-17.349 77-43.272 21.99-29.386 28.54-65.764 23.18-101.622-4.58-30.673-20.74-59.415-45.83-77.938-22.63-16.705-52.96-24.295-80.86-20.377-31.45 4.222-55.14 16.212-74.71 41.871-21.39 28.045-29 64.582-24.15 99.175 4.49 32.101 20.24 62.085 46.44 81.681 21.6 16.155 51.07 24.604 77.95 20.631z"/><path fill="rgb(172,186,176)" d="M1870.74 587.251c27.9-3.918 58.23 3.672 80.86 20.377 25.09 18.523 41.25 47.265 45.83 77.938 5.36 35.858-1.19 72.236-23.18 101.622-19.39 25.923-45.45 38.699-77 43.272l-.98.149c-26.88 3.973-56.35-4.476-77.95-20.631-26.2-19.596-41.95-49.58-46.44-81.681-4.85-34.593 2.76-71.13 24.15-99.175 19.57-25.659 43.26-37.649 74.71-41.871m26.51 240.724c30.06-4.825 57.42-18.243 75.49-43.3 22.21-30.817 26.52-67.466 20.41-104.122-4.82-28.658-20.73-54.267-44.28-71.297-22.24-15.428-49.4-22.109-76.26-18.761-.19.045-.37.094-.56.135-1.48.324-2.79.518-4.3.396-15.67-1.267-39.99 11.348-51.85 21.513-25.87 22.189-40.13 54.036-42.61 87.844-2.38 32.492 9.23 67.619 30.6 92.185 16.17 18.585 41.94 33.549 66.79 35.19 8.79.581 17.76.267 26.57.217"/><path fill="rgb(172,186,176)" d="M980.153 510.971a21.72 21.72 0 0 1 5.83-1.018c37.047-1.092 78.477 11.155 106.987 35.085 7.41 6.226 13.64 13.575 20.62 20.285.95-3.16.4-31.779.36-36.835 1.55-1.629 3.14-3.213 4.78-4.752 10.36-9.708 41.94-4.89 56.19-5.953 6.84-.51 23.89 5.143 24 13.719.25 18.654.11 37.42.11 56.095l-.01 117.444.01 124.217c.01 16.716.07 33.619.6 50.365.1 3.182-2.64 11.759-4.78 14.236-2.94 3.393-12.49 5.883-16.82 5.41-14.93-1.63-48.76 4.008-59.34-5.686-7.75-7.107-5.74-30.371-5.71-41.002-7.68 7.811-15.62 16.466-24.46 22.816-3.77 3.484-10.66 8.036-15.14 10.303-148.28 75.079-291.585-53.097-268.228-209.426 12.859-86.067 86.449-167.528 175.001-165.303m35.847 319.429c146.58-21.924 127.56-261.28-31.269-243.199-150.037 26.688-118.871 260.418 30.599 243.333.23-.045.45-.089.67-.134"/><path fill="rgb(37,74,55)" d="M977.893 513.447c45.897-1.623 91.947 10.183 125.217 44.499 3.84 3.961 6.05 8.166 10.5 11.825 1.19-.296 2.88-.962 2.96-2.378.41-7.38-2.36-36.23 2.89-40.758 9.06-7.822 43.96-4.29 56.46-4.863 10.96-.503 13.86 1.562 20.57 8.688l.08 238.938c.03 34.98.14 70.239-.1 105.222-.02 3.299-1.02 13.924-2.91 16.456-2.22 2.982-9.91 5.121-13.89 5.103-16.3-.075-33.75.203-49.99-.506-2.81-.403-6.95-2.013-8.87-4.051-8.52-9.074-5.56-33.708-5.57-45.772-9.82 10.521-15.53 16.47-26.51 26.078-22.84 18.462-50.92 27.77-80.01 30.978-176.474 19.459-260.604-192.313-159.877-321.675 33.193-42.63 75.772-62.369 129.05-67.784m38.107 316.953c146.58-21.924 127.56-261.28-31.269-243.199-150.037 26.688-118.871 260.418 30.599 243.333.23-.045.45-.089.67-.134"/><path fill="rgb(172,186,176)" d="M984.731 587.201c158.829-18.081 177.849 221.275 31.269 243.199-.22.045-.44.089-.67.134-149.47 17.085-180.636-216.645-30.599-243.333m22.159 240.725c24.37.853 51.11-11.649 68.64-28.105 22.56-21.172 36.03-53.16 36.91-83.915.96-33.169-7.26-68.216-30.69-92.875-21.53-22.661-50.3-33.137-81.16-33.942-2.01-.052-3.997.12-5.982.408-9.706 1.851-19.564 2.43-29.153 5.001-23.392 6.271-44.017 25.484-57.34 45.188-18.27 27.024-21.99 64.758-15.788 96.032 6.13 30.91 24.033 59.102 50.389 76.595 21.393 14.2 39.226 15.848 64.174 15.613"/><path fill="rgb(172,186,176)" d="M2326.21 510.958c10.62-3.92 36.35 1.601 47.65 3.107 28.31 3.772 54.33 14.676 77.09 33.024 40.66 32.142 66.49 79.455 71.52 131.041 1.63 15.148 5.85 43.851-3.6 56.57-6.82 9.186-16.17 6.484-26.58 6.427l-44.31-.044-141.98-.099c-20.33-.015-54.75-1.107-74.27.414-.81 2.353 2.81 12.963 3.77 15.851 8.55 26.485 27.4 48.417 52.3 60.864 42.99 21.492 94.71 17.75 132.92-11.782 17.53-13.551 15.14-26.778 38.2-10.983 11.75 5.304 27.06 13.904 36.56 22.645 3.37 3.105 6.46 7.19 6.46 11.992.01 7.986-12.88 19.582-18.58 24.981-44.7 42.379-92.44 53.795-152.54 52.163-6.27-.171-11.8-1.705-17.9-2.41-45.59-5.202-87.88-26.309-119.44-59.608-82.97-87.97-60.87-252.25 46.48-310.535 24.35-13.219 58.36-24.616 86.25-23.618m21.29 161.994 57.18.012c9.11-.002 23.23.389 31.84-.327 2.24-7.897-7.47-27.637-11.6-35.298-17.83-33.076-51.58-53.047-89.32-51.479-3.47.144-8.77-.172-12.06.452-34.08 6.094-52.65 15.277-74.12 43.902-5.87 7.821-17.7 33.267-17.33 41.834 2.12 1.603 103.78.913 115.41.904"/><path fill="rgb(37,74,55)" d="M2327.1 513.404c107.26-2.62 183.37 64.757 192.89 172.905 1.13 12.927 3.45 37.22-4.08 47.872-1.45 2.058-5.21 3.272-7.63 3.331-24.14 1.014-48.55.605-72.75.633l-125.63.092c-25.02-.07-57.71-.918-82.43.469 18.34 89.197 113.02 122.489 189.1 74.397 8.07-5.099 18.92-16.614 26.31-23.405l7.73 4.239c14 7.767 28.19 15.692 41.31 24.837 11.56 8.059 5.02 17.302-2.26 25.497-33.02 37.201-71.87 52.962-120.14 58.406-112.23 12.71-212.45-56.769-222.87-172.492-7.81-86.828 34.57-170.891 117.4-203.696 20.95-8.299 40.84-11.129 63.05-13.085m20.4 159.548 57.18.012c9.11-.002 23.23.389 31.84-.327 2.24-7.897-7.47-27.637-11.6-35.298-17.83-33.076-51.58-53.047-89.32-51.479-3.47.144-8.77-.172-12.06.452-34.08 6.094-52.65 15.277-74.12 43.902-5.87 7.821-17.7 33.267-17.33 41.834 2.12 1.603 103.78.913 115.41.904"/><path fill="rgb(172,186,176)" d="m2330.67 583.387.79-.067c26.08-2.232 51.98 5.995 72 22.869 14.69 12.607 25.36 28.341 31.71 46.606 2.15 6.187 7.67 16.865 2.8 22.355-6.1 1.322-24.86.785-31.99.782l-63.73-.033c-38.21-.143-76.42-.053-114.62.27 13.19-54.52 44.97-89.517 103.04-92.782m16.83 89.565 57.18.012c9.11-.002 23.23.389 31.84-.327 2.24-7.897-7.47-27.637-11.6-35.298-17.83-33.076-51.58-53.047-89.32-51.479-3.47.144-8.77-.172-12.06.452-34.08 6.094-52.65 15.277-74.12 43.902-5.87 7.821-17.7 33.267-17.33 41.834 2.12 1.603 103.78.913 115.41.904"/><path fill="rgb(172,186,176)" d="M1468.45 510.496c14.76-1.95 40.49 1.561 55.09 5.227 25.04 6.289 49.09 20.823 66.65 40.009 15.37 16.786 26.74 38.575 32.33 60.772 10.08 50.198 3.97 103.478 5.45 154.406-.25 34.473.53 69.499.05 103.879-.01 28.533-17.41 24.567-38.9 24.105-10.73-.231-38.63 3.686-43.72-7.954-5.27-12.072-3.54-35.481-3.53-49.084l.13-116.101c.03-34.947 4.66-80.094-17.38-109.141-24.85-32.755-92.09-37.306-122.47-10.433l-.67.607c-3.67 1.778-6.98 7.182-9.86 10.281-11.57 12.44-19 26.533-22.98 43.062-8.76 36.309 2.27 219.164-7.05 231.384-2.77 3.628-8.32 6.806-12.83 7.439-10.21 1.432-43 1.282-52.97-.512-4.83-.868-10.07-2.49-13.94-5.633-3.38-2.751-4-10.168-4.25-14.215-.99-16.257.49-33.27.34-49.62l.08-160.969c.28-44.326-2.09-88.631-.84-132.942.35-12.343 13.09-17.927 23.98-17.16 17.86 1.258 44.97-4.783 59.72 7.471 4.7 3.903 2.48 29.855 2.35 37.014l.92.244c.79-1.362 1.66-2.681 2.59-3.952 18.22-24.68 55.05-42.22 85.07-46.37 5.47-.756 11.11-.977 16.64-1.814"/><path fill="rgb(37,74,55)" d="M1470.76 513.341c9.85-.463 19.73-.087 29.53 1.123 37.09 4.413 70.69 20.431 94.03 50.2a140.21 140.21 0 0 1 26.83 59.223c6.03 29.994 4.62 61.222 4.43 91.654l-.1 84.119.09 51.115c.14 47.788 3.6 44.687-42.78 45.322-47.28.646-38.22-6.937-38.01-53.416l.13-111.739c.02-35.674 4.35-82.397-15.99-113.033-23.92-36.021-89.68-42.298-123.72-17.621l-.79.581c-51.51 35.054-42.47 104.094-42.42 158.255l-.06 125.584c-1.32 2.308-5.95 10.506-9.73 10.7-20.28.92-43.45 2.294-63.32-1.18-3.01-.526-6.58-6.58-8.08-8.975-.79-13.363-.3-31.331-.31-44.954l-.05-82.911.08-228.644c5.21-5.051 11.4-7.28 18.87-7.01 13.92.502 48.19-3.943 58.55 5.337 5.27 4.725 3.81 34.889 4.04 43.186 2.62-4.456 5.65-8.664 9.04-12.57 25.55-29.635 61.84-41.465 99.74-44.346"/><path fill="rgb(172,186,176)" d="M3532.45 511.497c6.43-1.142 12.98.173 19.55.438 34.57 1.395 69.91 15.393 95.44 38.923 8.9 8.2 22.2 20.607 23.65 33.355.23 3.494-1.84 6.086-4.11 8.261-8.8 8.47-16.85 13.43-28.37 17.71-3.63 1.35-11.2 8.149-16.34 8.94-14.61 2.516-22.89-11.049-32.83-19.029-17.11-13.726-34.84-17.753-56.32-17.11-15.98.479-27.88.818-40.01 13.402-7.43 7.711-10.98 14.325-10.76 25.2-.31 32.424 37.37 39.205 61.77 46.647 38.88 11.862 85.06 23.21 115.13 52.203 18.78 18.099 25.52 46.26 24.73 71.321-.13 29.662-8.34 52.743-29.16 74.182-28.3 29.128-72.15 39.542-111.45 40.038-11.18.141-22.11-.858-33.52-.911-9.87-2.712-23.3-4.764-32.14-7.471-28.77-8.813-61.5-27.569-78.87-52.817-4.65-6.742-9.46-16.043-7.58-24.444.96-4.321 2.39-8.434 6.29-11.318 12.06-8.905 31.12-21.419 45.2-25.438 8.2-2.343 23.9 17.68 29.56 23.467 4.16 4.213 8.59 8.152 13.26 11.794 29.33 23.097 120.48 26.554 116.19-30.333-2.24-29.816-48-39.105-71.59-47.203-30.78-10.567-67.49-20.8-94.74-39.72-30.12-22.516-40.57-57.817-35.42-93.871 7.14-50.024 48.2-78.642 93.92-91.245 11.21-3.092 26.23-3.097 37.89-4.871z"/><path fill="rgb(134,163,138)" d="M3534.76 514.426c13.96-2.274 45.73 3.387 62.55 9.723 22.8 8.404 65.38 35.037 70.12 59.782 1.95 10.186-46.01 35.541-56.48 30.084-6.98-3.225-10.94-9.136-16.47-14.207-20.48-18.292-53.53-24.262-80.03-18.74-34.98 7.289-49.22 49.718-18.3 71.886 13.12 9.404 27.14 11.935 42.46 16.619 42.06 12.853 90.64 24.614 122.21 57.219 14.78 15.613 22.15 48.616 20.69 69.593-2.08 29.829-12.18 53.797-35.52 73.308-38.75 32.396-87.03 35.078-134.75 31.739-34.11-5.086-66.32-16.304-93.64-40.313-44.79-39.37-18.88-56.548 25.55-74.215 4.88-1.942 23.83 19.56 27.96 23.947 28.74 30.49 90.9 37.085 123.12 9.687 15.16-14.489 14.11-47.711-4.21-58.417-48-28.059-116.46-33.804-160.21-69.797-34.44-28.337-36.4-90.298-10.11-125.104 27.23-36.039 70.67-51.079 115.06-52.794"/><path fill="rgb(172,186,176)" d="M2878.34 371.995c79.39-.357 70.81-9.651 70.71 67.277l-.02 83.605.1 293.096c2.56 2.355 43.15.944 50.45.945l114.34.004c17.75-.025 35.62-.417 53.32.512 5.71.3 12.47 5.579 12.5 11.306.09 17.494 1.6 35.877-.11 53.251-1.01 10.327-6.77 15.136-16.85 15.354.49.142-29.15.629-31.48.635l-54.91.066c-64.73.041-129.39.193-194.11-1.127-23.98-.488-21.74-16.448-21.08-35.124 1.23-35.156.79-70.21.79-105.29l-.03-244.279c-.02-40.72-.06-81.525-.05-122.249-.1-3.67 1.31-7.347 3.29-10.405 3.04-4.699 7.99-6.469 13.14-7.577"/><path fill="rgb(134,163,138)" d="M2885.74 375.49c15.06-.254 33.3-1.187 48.12.356 6.25.649 8.5 3.44 11.76 8.205 1.04 11.053.45 32.68.42 44.11l-.27 79.191-.08 231.253c-.01 10.792-1 73.355 1.6 80.099 6.65 3.116 38.51 1.683 47.89 1.645l113.58-.179c19.03.005 38.1-.367 57.11.731 12.99.75 11.5 17.193 11.59 26.977.1 9.808.45 21.537-.78 31.274-1.51 11.931-5.48 15.763-17.51 13.529-1-.208-1.62-.255-2.57.132-9.29 3.752-265.51 3.182-284.49.19l-7.56-7.465c-.94-28.545.03-62.404.07-91.511l.08-184.672v-141.929c-.05-22.793-.12-45.662-.2-68.453-.06-18.095 2.01-23.225 21.24-23.483"/><path fill="rgb(172,186,176)" d="M3849.42 413.383c21.62-5.834 16.71 34.05 16.71 46.395l-.07 60.176c14.97.043 82.94-3.541 91.52 4.156 3.63 3.252 5.15 9.582 5.51 14.243.37 5.022-.14 10.14-.14 15.175.01 10.122 2.8 26.8-4.91 34.97-8.37 8.863-77.4 5.466-91.99 5.553.15 12.16-.89 23.493-.98 35.436l-.11 96.394c.02 23.716-.81 51.809 4.14 74.946 1.87 8.751 4.47 11.663 11.46 17.298 25.92 20.895 52.25.957 75.57 9.524 3.68 1.355 7.86 9.904 8.37 14.315 1.38 11.939 6.21 39.001-.67 49.215-5.88 8.725-24.73 8.794-34.68 10.881-5.48-.157-10.74.688-16.19.553-37.34-.823-78.9-5.099-105.1-35.124-32.83-37.619-25.93-97.151-25.92-144.063l.02-129.365c-17.91.298-39-.349-56.82-1.518-17.44-1.143-15.22-18.574-15.11-28.846.29-28.607-6.26-43.776 30.85-43.981 12.52-.07 27.39.154 40.07.242.07-15.611.03-31.221-.11-46.831-.16-10.526-2.29-33.509 4.17-40.536 10.06-10.938 50.46-17.497 64.41-19.208"/><path fill="rgb(134,163,138)" d="M3850.77 416.361c1.83-.2 3.92-.246 5.66.461 14.86 6.056 1.22 87.307 7.72 104.009 3.17 2.941 9 2.153 13.36 2.092 24.01-.336 48.02-.142 72.03-.023 15.64 10.063 10.34 20.971 10.95 37.806.23 6.334-.49 13.594-.75 20.007-1.43 2.035-3.83 5.778-5.93 6.831-15.64 7.856-77.3-1.446-88.25 5.042-5.75 7.17-2.25 106.682-3.11 124.487.85 25.256-1.94 53.868 2.22 78.697 7.06 42.201 50.26 35.148 81.38 32.228 5.49-.516 9.05 1.996 12.53 5.584l.83.86c3.2 11.852 3.95 26.686 5.17 38.998 2.26 22.955-19.48 23.869-36.47 25.216-35.83 1.891-82.48-.753-110.59-26.089-12.55-11.406-21.66-26.083-26.32-42.382-7.11-24.653-6.66-65.766-6.68-92.111l-.05-97.103c.01-14.897.88-31.444.15-46.13-8.62-14.648-68 8.886-71.27-18.441-8.06-66.337 12.58-52.491 64.25-53.407 16.75-.297-2.14-79.404 10.44-89.692 10.02-8.199 50.57-15.784 62.73-16.94"/><path fill="rgb(172,186,176)" d="M2762.45 513.491c7.88-1.137 20.48-1.216 28.23.791 6.96 1.804 12.98 11.033 12.4 18.11-1.16 13.988 1.98 37.68-.87 50.598-3.89 17.647-34.54 11.843-47.03 13.861-10.71 2.712-22.77 6.122-32.77 11.184-13.84 7.007-27.43 23.419-36.52 35.684-2.45 3.608-3.51 9.236-5.31 12.908-10.42 21.207-9.94 41.753-9.58 64.742.18 11.075-.01 23.077 0 34.535l.13 89.469c.04 10.691 3.54 48.515-9.87 51.473-20.48 4.518-47.92 2.649-68.73-.435-3.3-.489-7.07-9.241-7.97-12.2-1.03-2.249-.63-21.79-.63-25.328l-.01-57.912v-218.853c0-9.902-.83-43.46 1.07-54.202 4.69-6.299 9.29-9.073 17.06-9.592 14.21-.95 28.52-.634 42.72-.206 6.03.492 11.75.508 16.72 4.12 12.71 9.229 8.47 31.423 9.89 47.318l1.32-.419c10.61-27.177 52.41-50.749 79.97-54.37 3.2-.421 6.53-.731 9.78-1.276"/><path fill="rgb(37,74,55)" d="M2771.21 515.493c8.22-.169 24.48-.114 26.9 10.025 3.55 14.865 2.42 44.01-.01 58.837-1.54 9.338-33.32 9.142-41.01 9.966-6.18.687-12.28 1.941-18.23 3.749-40.4 12.261-65.7 50.629-69.78 91.082-1.92 19.06-1.13 45.306-1.1 64.842l.1 91.591c.01 12.355 1.6 34.969-3.92 45.252-2.51 2.188-8.28 4.815-12.39 4.702-18.45-.511-44.79 4.072-61.33-4.671-3.88-2.052-3.6-13.511-3.6-17.618-.08-37.954-2.21-337.73 1.54-345.675.8-1.692 3.71-3.089 5.41-3.765 8.28-3.288 56.45-3.705 64.31-.134 17.83 8.105 4.78 38.395 10.35 52.699l1.56.676c1.31-.989 7.45-13.095 11.22-17.505 26.34-30.776 51.43-39.884 89.98-44.053"/><path fill="rgb(134,163,138)" d="M3275.8 359.02c.87.326 5.69 4.512 6.76 5.425 5.22-.775 17.54-19.407 21.3-23.965 7.74-9.39 16.27-18.114 24.28-27.274 23.94-27.379 48.01-54.319 72.93-80.813 12.72-13.525 72.41-77.92 86.39-78.261 9.46-.231 13.33-.077 21.27 5.802 9.33 6.908 29.07 21.578 30.24 33.764.37 3.947-2.67 7.27-5.08 10.052-7.15 8.232-15.67 15.658-23.44 23.322-9.1 8.983-17.88 18.432-26.75 27.661-24.87 25.904-48.5 52.979-72.65 79.549-27.29 31.349-54.42 62.003-80.07 94.805-11.66 14.911-30.79 36.888-51.69 34.797-7.91-.84-15.38-3.989-21.51-9.053-30.03-24.698-61.97-77.091-93.47-104.34-6.12-5.3-24.34-24.544-21.08-32.373 2.76-10.322 45.06-46.626 55.26-38.745 12.79 9.889 70.36 65.38 77.31 79.647"/><path fill="rgb(172,186,176)" d="M3275.8 359.02c.87.326 5.69 4.512 6.76 5.425 5.22-.775 17.54-19.407 21.3-23.965 7.74-9.39 16.27-18.114 24.28-27.274 23.94-27.379 48.01-54.319 72.93-80.813 12.72-13.525 72.41-77.92 86.39-78.261 9.46-.231 13.33-.077 21.27 5.802 9.33 6.908 29.07 21.578 30.24 33.764.37 3.947-2.67 7.27-5.08 10.052-7.15 8.232-15.67 15.658-23.44 23.322-9.1 8.983-17.88 18.432-26.75 27.661-24.87 25.904-48.5 52.979-72.65 79.549-27.29 31.349-54.42 62.003-80.07 94.805-11.66 14.911-30.79 36.888-51.69 34.797-7.91-.84-15.38-3.989-21.51-9.053-30.03-24.698-61.97-77.091-93.47-104.34-6.12-5.3-24.34-24.544-21.08-32.373 2.76-10.322 45.06-46.626 55.26-38.745 12.79 9.889 70.36 65.38 77.31 79.647-5.77-4.473-10.5-9.983-15.66-15.104-13.37-13.254-26.19-26.997-39.4-40.394-5.46-5.526-10.95-11.801-17.24-16.38-3.59-2.612-8.2-5.349-12.84-4.789-10.39 1.256-36.5 24.517-42.29 32.984-1.48 2.157-1.95 3.114-1.4 5.666.19.871.4 1.73.56 2.607 2.19 11.916 56.95 62.766 68.38 76.08 14.6 17.005 25.95 40.42 44.97 53.271 8.17 5.52 17.64 8.74 27.51 6.685 8.32-1.731 16.2-7.039 22.37-12.683 16.48-15.076 29.5-35.31 43.76-52.552 18.47-22.346 38.21-43.467 57.05-65.468 26.55-32.498 56.8-63.269 86.07-93.324 11.32-11.62 23.93-22.673 34.46-34.94 2.13-2.475 3.88-4.418 3.39-7.89-1.22-8.721-23.57-27.4-31.41-32.608-4.31-2.863-10.54-4.456-15.65-3.241-19.97 4.744-106.91 100.072-125.45 120.861-11.39 12.777-21.95 26.275-33.29 39.094-6.21 7.022-12.95 13.567-19.16 20.554-7.27 8.174-13.13 18.291-21.12 25.703-2.58 2.391-4.43 3.454-7.94 3.25-2.61-2.065-3.61-3.444-5.66-5.966z"/><path fill="rgb(172,186,176)" d="M3260.45 519.497c1.08-.192 2.16-.321 3.25-.386 9.99-.695 51.47-1.007 56.7 5.125 9.93 11.665 4.75 58.594 4.67 73.262l-.06 144.021.11 86.666c.02 15.894.3 31.823-.23 47.709-.7 20.557-7.58 21.478-25.39 21.123-17.42-.179-44.32 4.79-56.82-8.108-4.04-28.657-.82-76.51-1.1-106.393l-.66-157.49c-.03-27.91-.23-55.815.28-83.718.28-15.224 3.95-19.701 19.25-21.811"/><path fill="rgb(134,163,138)" d="M3252.83 523.178c14.32-1.679 46.12-.56 60.99-.347l8.51 8.51c1.17 28.597.01 63.409-.2 92.391l.03 118.917.07 86.723c.07 16.924.51 34.038-.41 50.913-.31 5.663-2.91 11.435-9.12 11.526l-.68.976c-5.87 3.266-50.79 1.892-59.76.201-2.2-1.908-5.19-5.119-7.33-7.285-1.67-11.975-.75-37.448-.64-50.774l.22-80.504-.02-144.427c0-23.929-.9-55.192.39-78.678z"/><path fill="rgb(172,186,176)" d="M3280.93 112.53c33.02-1.051 60.69 24.757 61.94 57.77s-24.39 60.842-57.39 62.292c-33.29 1.463-61.41-24.446-62.67-57.743s24.82-61.259 58.12-62.319"/><path fill="rgb(134,163,138)" d="M3281.5 115.358c11.58.155 25.03 4.187 34.33 11.118 12.58 9.298 20.9 23.249 23.12 38.733 2.11 15.211-2.02 30.63-11.45 42.749-11.73 15.093-25.13 18.788-42.85 21.144-72.24-.009-82.88-103.517-3.15-113.744"/></svg>